<?xml version="1.0" encoding="UTF-8"?>
<svg xmlns="http://www.w3.org/2000/svg" id="Layer_2" data-name="Layer 2" viewBox="0 0 999.5 999.5">
  <defs>
    <style>
      .cls-1 {
        fill: #ab956d;
      }
    </style>
  </defs>
  <path class="cls-1" d="m689.65,520.49c-.2,2.45-.26,4.88-.14,7.31v.1c.07,8.47,3.6,16.32,8.35,23.85l-.16-23.99c-.68-3-3.8-5.8-8.05-7.27Z"></path>
  <path class="cls-1" d="m764.28,615.95l-9.78.78v47.74c0,9.94-11.88,14.66-22.23,17.66-8.89,2.58-19.65,4.45-25.58,4.45h-7.95l-.05-7.95-.33-49.59c-6.41,6.06-11.62,13.33-9.76,26.36v.2c.2,2.3.3,4.4.3,6.5v3c0,.5,0,1.1-.1,1.6,0,.4,0,.9-.1,1.3,0,.3,0,.6-.1.8-.9,10.8-4.2,18.2-10,22.2-.5.3-.9.6-1.4.9-.5.2-.9.5-1.4.7h-.1c-3.2,1.4-7,2.1-11.4,2.1-2.7,0-5.5-.2-8.3-.7-.3,0-.6-.1-.8-.1-.4-.1-.8-.1-1.2-.2-14.3-2.7-29.5-10-37.1-13.6l-4.4-2.1-2.5,3.1c-3.1,3.9-4,7-3.9,10.2v.9c.3,2.5,1.2,4.8,2.5,8.1.2.5.4,1.1.7,1.7.1.1.1.3.2.4,0,.1.1.2.1.2,3.1,8,7.7,22.3,8.9,51.8-1.9,0-3.8-.1-5.6-.1,1.6,10.4,1.6,19.3,1.3,26.8,0,.7,0,1.5-.1,2.2-.1-.6-.2-1.3-.3-2-1-5.3-3.3-14-9.1-27.2-4.8-.1-9.7-.2-14.5-.3,4.6,10.2,8.5,20,11.5,29.5.2.8.5,1.6.7,2.4.5,1.6.9,3.2,1.4,4.8.4,1.7.8,3.3,1.2,4.9.6,2.5,1.1,5,1.5,7.4-.7,9.4-2.2,19-4.7,29.1,4.8-1.5,9.6-3,14.3-4.7,2.9-9.7,4.7-18.8,5.5-27.5,1.4-4.2,2.6-8.3,3.5-12.3,76.82-33.76,137.54-97.36,167.46-176.14-3,1.78-6.39,2.95-9.95,3.23l-18.32,1.46Z"></path>
  <path class="cls-1" d="m297.41,686.58h-7.89c-5.93,0-16.69-1.87-25.58-4.45-10.35-3-22.23-7.72-22.23-17.66v-48l-8.73-.69-16.09-1.28c-3.87-.31-7.55-1.65-10.73-3.7,30.02,79.21,91.16,143.09,168.54,176.71,0,3.9.2,7.8.6,11.8.6,4.8,1.5,8.7,2.4,11.3.9,2.6,2.2,5.3,4.1,8.1,1.8,2.8,4.2,5.5,7,8s5.5,4.2,8.1,5c1,.3,1.9.5,2.7.5.9,0,1.7-.2,2.4-.7,1.3-.8,2.2-2.4,2.7-4.7.9,2.1,1.9,4.3,2.8,6.4,3.3.9,6.5,1.8,9.8,2.7-2.5-12-4-23.5-4.3-34.7-.1-1.8-.1-3.5-.1-5.3v-4.8c-6.5-.7-12.9-1.5-19.3-2.4v6.3c0,1.8.1,3.5.2,5.3,1.1.2,2.2.4,3.3.6.2,3.1.5,6.2.9,9.3.5,3.7.7,6.1.5,7.3-.1.9-.6,1.4-1.4,1.4-.2,0-.4,0-.7-.1-1.1-.3-1.9-1-2.5-2.3-.6-1.2-1.2-3.6-1.7-7.1-.7-5.2-1.1-10.3-1.2-15.4v-5.4c0-1.8.1-3.5.2-5.3v-.6c.2-3.1.6-6.2,1.1-9.3.6-3.8,1.3-6.1,1.9-7,.5-.9,1.3-1.3,2.3-1.3h.1c1.2,0,1.8.6,1.8,1.7.1,1.1-.3,3.8-.9,8.2-.3,2.3-.6,4.6-.8,6.9,3.3.3,6.7.6,10,.9,2.2.2,4.3.4,6.5.6v-.6c.1-1,.2-2,.2-2.9.6-6.6,1-11.8.6-15.3-.3-3.5-1.7-6.5-4.1-9-2.3-2.3-5.4-3.4-9.6-3.4h-.8c-4.7.2-9,1.7-12.8,4.3-1,.7-2,1.4-2.8,2.1,1.6-29.1,6-44.2,9.5-53.3q0-.1.1-.2c.1-.3.2-.6.4-.9,0-.1.1-.2.1-.3.1-.2.2-.5.3-.7,0-.1.1-.3.2-.4.1-.2.1-.4.2-.6.1-.2.1-.3.2-.4.1-.2.1-.3.2-.4.2-.5.4-.9.5-1.3,0-.1.1-.2.1-.3,1.5-3.6,2.5-5.9,2.7-8.6v-.3c.2-3.1-.8-6.3-3.9-10.2l-2.5-3.1-4.4,2.1c-7.6,3.6-22.7,10.9-37,13.6-.4.1-.8.2-1.2.2-.3,0-.5.1-.8.1-2.8.4-5.6.7-8.3.7-4.4,0-8.2-.7-11.4-2.1h-.1c-.5-.2-.9-.4-1.4-.7s-.9-.5-1.4-.8h-.1c-7.9-5.4-11.3-17.3-10-35.4v-.2c2.3-16.1-6.2-23.4-14.4-30.5-1.06-.92-2.13-1.85-3.18-2.79l-.79,56.88-.11,7.89Z"></path>
  <path class="cls-1" d="m813.5,491c0-1.4,0-2.8-.1-4.2,0-.9-.1-1.8-.1-2.7-.1-1.2-.1-2.4-.2-3.6-.1-2.2-.3-4.5-.5-6.7,0-.3,0-.6-.1-.9-13.08-154.79-126.02-277.51-271.3-297.2-13.1-2.2-26.3-3.4-39.7-3.4h-.6c-8.2,0-16.4.5-24.6,1.3-152.19,10.76-271.11,133.44-288.6,291.1-.1.6-.1,1.2-.2,1.7-.2,1.4-.3,2.8-.4,4.2-.1,1-.2,2-.2,3-.1,1.5-.2,3-.3,4.6-.1,1.7-.2,3.4-.3,5.1,0,.8-.1,1.7-.1,2.5-.1,1.6-.1,3.1-.2,4.7,0,.7,0,1.5-.1,2.2,0,2.3-.1,4.6-.1,6.9,0,2,0,3.9.1,5.9,0,1,0,2,.1,2.9,0,1,.1,1.9.1,2.8,0,1.4.1,2.7.2,4.1,0,.5,0,1.1.1,1.6.1,1.7.2,3.3.3,4.9v.7c1.18,16.38,3.63,32.4,7.23,47.99-1.56-36.09,3.3-71.91,14.53-106.82,2.8-8.72,12.32-15.3,22.13-15.3.57,0,1.15.02,1.72.07l6.6.52,6.47.51c8.27-48.38,20.03-112.73,53.96-165.31,19.37-30.01,44.27-53.36,74.03-69.41,34.39-18.54,76.35-27.94,124.74-27.94,29.24,0,56.3,3.43,80.42,10.19,22.47,6.3,43.01,15.67,61.06,27.84,16.48,11.11,31.32,24.87,44.13,40.9,11.37,14.23,21.49,30.7,30.07,48.95,5.71,12.14,10.92,25.47,15.5,39.62,10.81,33.4,16.84,67.35,21.6,95.41l4.5-.36,11.8-.94c.57-.05,1.14-.07,1.72-.07,9.82,0,19.33,6.58,22.13,15.29,10.88,33.8,15.78,68.46,14.66,103.38,3.16-14.47,5.32-29.31,6.4-44.45v-.6c.1-1.6.2-3.3.3-4.9,0-.5,0-1.1.1-1.6.1-1.3.1-2.7.2-4,0-.9,0-1.9.1-2.8,0-1,.1-1.9.1-2.9v-5.8c0-2.2,0-4.4-.1-6.5.8-1,.7-1.7.7-2.5Z"></path>
  <path class="cls-1" d="m314.3,519.39c-.16,0-.33.02-.49.02-7.04.2-13.13,3.81-14.17,8.31l-.48,34.58c8.14-10.81,15.85-22.03,15.95-34.7v-3.3c0-.6,0-1.3-.1-1.9,0-.5,0-.9-.1-1.4,0-.54-.08-1.08-.17-1.62h-.43Z"></path>
  <path class="cls-1" d="m429.5,569c-6.9-3.5-41.7-20.8-50.1-20.8-.4.1-33.5.8-41,9.8l-.5.6-.3.7c-10.5,26-3.8,64.9,25.1,82.2l1.2.7h1.4c29.5,0,94.4-28,105-38.7.6-.6,2.5-2.5,2.5-5.2,0-3.2,0-7.6-43.3-29.3Z"></path>
  <path class="cls-1" d="m453.7,805.3c-.2-1.7-.4-3.4-.6-5.1-.6-5.7-1-11.3-1.4-17-.6-10.1-.7-20.1-.4-30.2-7.6.1-15.2.3-22.8.5-3,10.1-5.4,19.9-7,29.7-.6,3.3-1.1,6.6-1.5,9.9-.2,1.7-.4,3.3-.5,5-.2,1.7-.3,3.4-.4,5.1-.8,11.1-.6,22.2.7,33.7,5.4,1.3,10.8,2.5,16.3,3.6-.5-5.3-.9-10.6-1.1-15.8,1.9.3,3.9.6,5.8.9.8,5.4,1.7,10.8,2.7,16.3,5.4,1,10.8,1.8,16.2,2.5-2.2-11.5-4.1-22.8-5.6-34,0-1.7-.2-3.4-.4-5.1Zm-19.9,3.8c0-.7.1-1.5.1-2.4,0-1.5.1-3.2.3-5.1.1-1.6.2-3.2.4-5,.4-4,.9-8.4,1.7-13.5.5-3.2,1.1-6.7,1.8-10.4-.1,3.6-.2,7.1-.2,10.4,0,5.1.2,9.9.5,14.3.1,1.8.2,3.5.4,5.2.2,1.8.3,3.5.5,5.2.1.6.1,1.3.2,1.9-1.9-.1-3.8-.4-5.7-.6Zm7.4-45.88v.08q-.1,0-.2-.1h.2v.02Z"></path>
  <path class="cls-1" d="m441.2,763.3v-.1h-.2q.1,0,.2.1Z"></path>
  <path class="cls-1" d="m539.1,811.3c0-1.7.1-3.3.1-5,3.5-.2,7-.5,10.4-.7v-6c0-3.8-.1-7.6-.2-11.3-3.5.2-6.9.3-10.4.4,0-1.8-.1-3.7-.2-5.5-.1-4-.3-8-.5-12,3.6,0,7.3-.1,10.9-.2-.4-6-1-12.1-1.6-18.2-8.8-.1-17.5-.2-26.3-.3.4,10.2.7,20.4.9,30.6.1,6.6.2,13.1.2,19.7v10c-.1,11.2-.3,22.4-.7,33.6,9.2-.5,18.5-1.5,27.6-2.8.6-6.2,1.1-12.3,1.4-18.3-4,.5-8,.9-12.1,1.2.3-5,.4-10.1.5-15.2Zm-7.3-48.7c.4.1.9.1,1.4,0-.5.3-1,.6-1.4,1v-1Zm.2,73.1c0-.5.1-1.1,0-1.6.7.6,1.4,1,2.1,1.4-.7.1-1.4.1-2.1.2Zm.5-36.9c-.1-.8-.1-1.7,0-2.7.6.5,1.2.9,1.9,1.3-.7.4-1.3.9-1.9,1.4Z"></path>
  <path class="cls-1" d="m532,835.7c.7-.1,1.4-.1,2.1-.2-.7-.4-1.4-.8-2.1-1.4.1.5,0,1.1,0,1.6Z"></path>
  <path class="cls-1" d="m531.8,762.6v1c.4-.4.9-.7,1.4-1-.5.1-1,.1-1.4,0Z"></path>
  <path class="cls-1" d="m532.5,798.8c.6-.5,1.2-1,1.9-1.4-.7-.4-1.3-.8-1.9-1.3-.1,1-.1,1.9,0,2.7Z"></path>
  <path class="cls-1" d="m508.2,813.6v-30.4c0-10.2-.1-20.4-.2-30.6h-15.7c-.3,10.2-.5,20.4-.6,30.6-.1,6.8-.1,13.6-.1,20.4v10c.1,11.1.3,22.2.6,33.3,3.3.1,6.6.2,10,.2,5.2,0,10.5-.1,15.7-.4.2-6.3.3-12.6.4-18.9-3.3.1-6.7.2-10,.3-.1-4.8-.1-9.7-.1-14.5Zm-6.1,23.5h-.2c-.1-.4-.1-.8,0-1.2.6.4,1.2.9,1.9,1.2h-1.7Z"></path>
  <path class="cls-1" d="m501.9,837.1h1.9c-.7-.3-1.3-.8-1.9-1.2-.1.4-.1.8,0,1.2Z"></path>
  <path class="cls-1" d="m592.5,799.8h-.1.1c-.3-1-.9-2-1.6-3-.3-.5-.8-1-1.4-1.4-1.2-.9-3-1.6-5.2-2.1,2.9-.7,5-1.9,6.4-3.5.3-.4.6-.8.8-1.2.6-1.2,1-3.1,1.2-5.5.1-2,0-4.5-.3-7.4-.8-6.9-2.6-11.9-4.8-15.1-2.3-3.2-4.9-5.2-7.7-6.1-2.8-.8-7.9-1.4-15.3-1.5-3.7-.1-7.4-.1-11.2-.2,1.3,10.1,2.1,20.2,2.6,30.2.2,5.1.4,10.2.4,15.3v5.1c0,1.7,0,3.4-.1,5.1-.2,11.4-1,22.8-2.3,34.4,5.3-.8,10.6-1.8,15.8-2.8,1.8-11.9,2.8-23.5,3.1-35.1,0-1.5.1-3,.1-4.5.5,0,.9-.1,1.2-.1,1.6,0,2.6.4,3,1.2.2.4.4,1.2.5,2.2.2,1.5.2,3.5,0,6.2-.5,9.5-1.5,19.2-3.1,29,4.9-1.1,9.8-2.2,14.6-3.5,1.5-7.6,2.7-15,3.4-22.3.6-6.7.6-10.7.4-12.1-.2-.3-.4-.8-.5-1.3Zm-15.2-16.6c-.1,1.4-.3,2.3-.8,2.7-.7.7-2,1.2-3.9,1.3-.1-1.3-.1-2.7-.2-4-.3-5-.7-10.1-1.3-15.1h.2c1.8,0,3,.4,3.8,1.2s1.4,2.6,1.6,5.3c.2,1.6.3,3.1.4,4.7.3,1.5.3,2.8.2,3.9Z"></path>
  <path class="cls-1" d="m989.6,434.3h-63.7c-4.3-30.9-11.9-61.2-22.8-90.4l54.2-31.3c4.8-2.8,6.4-8.9,3.7-13.7l-56.1-97.1c-1.8-3.2-5.2-5-8.7-5-1.7,0-3.4.4-5,1.3l-52.8,30.5c-19.5-24.9-41.7-47.5-66.1-67.6l30.1-52.1c1.3-2.3,1.7-5,1-7.6-.7-2.6-2.4-4.8-4.7-6.1l-97.1-56.1c-1.5-.9-3.3-1.3-5-1.3-.9,0-1.7.1-2.6.3-2.6.7-4.8,2.4-6.1,4.7l-29.4,51.2c-29.6-11.8-60.5-20.2-92-25.1V10c0-5.5-4.5-10-10-10h-112.2c-5.5,0-10,4.5-10,10v58.7c-31.5,4.8-62.5,13.2-92.1,24.8l-29.6-51.2c-1.3-2.3-3.5-4-6.1-4.7-.9-.2-1.7-.3-2.6-.3-1.7,0-3.5.5-5,1.3l-97.1,56.1c-4.8,2.8-6.4,8.9-3.7,13.7l30,52c-24.5,20-46.8,42.6-66.3,67.4l-52.8-30.6c-1.5-.9-3.3-1.3-5-1.3-.9,0-1.7.1-2.6.3-2.6.7-4.8,2.4-6.1,4.7l-56.1,97.1c-1.3,2.3-1.7,5-1,7.6.7,2.6,2.4,4.8,4.7,6.1l54,31.2c-10.9,29.2-18.7,59.5-23,90.3H10c-5.5,0-10,4.5-10,10v112.1c0,5.5,4.5,10,10,10h65.5c5.1,30.3,13.3,59.9,24.7,88.3l-57.9,33.4c-2.3,1.3-4,3.5-4.7,6.1-.7,2.6-.3,5.3,1,7.6l56.1,97.1c1.3,2.3,3.5,4,6.1,4.7.8.2,1.7.3,2.6.3,1.7,0,3.5-.5,5-1.3l59.2-34.2c19.2,23.3,40.8,44.5,64.3,63.3l-34.7,60.2c-2.8,4.8-1.1,10.9,3.7,13.7l97.1,56.1c1.6.9,3.3,1.3,5,1.3,3.5,0,6.8-1.8,8.7-5l35.1-60.7c27.9,10.6,56.9,18.3,86.5,22.9v70.7c0,5.5,4.5,10,10,10h112.1c5.5,0,10-4.5,10-10v-70.5c29.6-4.5,58.6-12.1,86.5-22.7l35.2,60.9c1.3,2.3,3.5,4,6.1,4.7.8.2,1.7.3,2.6.3,1.7,0,3.5-.5,5-1.3l97.1-56.1c4.8-2.8,6.4-8.9,3.7-13.7l-34.7-60c23.6-18.7,45.3-39.9,64.5-63.1l59.4,34.3c1.5.9,3.3,1.3,5,1.3.9,0,1.7-.1,2.6-.3,2.6-.7,4.8-2.4,6.1-4.7l56.1-97.1c1.3-2.3,1.7-5,1-7.6s-2.4-4.8-4.7-6.1l-57.8-33.4c11.5-28.4,19.8-58,24.9-88.2h65.7c5.5,0,10-4.5,10-10v-112.2c-.1-5.5-4.6-10-10.1-10Zm-.2,122.2h-74.1v-.1c-5.3,35.8-15.2,70.2-29,102.5l65.4,37.8-56.1,97.1-66.8-38.6c-21.9,27.5-47.1,52.2-75.1,73.5l39,67.6-97.1,56.1-39-67.6-.4-.7c-31.9,12.8-65.7,21.8-100.9,26.4v79.2h-112.2v-79.3c-35.2-4.7-69-13.8-100.8-26.7l-1.6,2.8-37.7,65.3-97.1-56.1,39.1-67.7c-27.9-21.3-53.1-46.1-74.9-73.7l-66.7,38.5-56.1-97.1,65.5-37.8c-13.7-32.3-23.5-66.7-28.7-102.5H10v-112.3h72.7c4.4-36.6,13.5-71.7,26.7-104.7l-61.5-35.5,56.1-97.1,60.5,34.9c22.1-29.2,47.9-55.5,76.7-78l-34.3-59.4,97.1-56,33.9,58.8c33.5-14,69.2-23.8,106.4-28.7V10h112.1v67.5c37.2,5,72.9,14.9,106.3,29l33.8-58.6,97.1,56.1-34.4,59.5c28.8,22.6,54.5,48.9,76.5,78.2l60.3-34.8,56.1,97.1-61.6,35.6c13.1,33.1,22.1,68.2,26.4,104.8h72.5v112.1Z"></path>
  <path class="cls-1" d="m477.7,827.5c-.2-4.8-.3-9.7-.3-14.6,0-1.7,0-3.3-.1-5v-5c0-6.6.1-13.1.2-19.7.3-10.2.7-20.3,1.4-30.5-5.2,0-10.5.1-15.8.2-1.1,10.1-1.8,20.2-2.2,30.3-.2,6-.4,12-.4,18v5c0,1.7,0,3.4.1,5,.2,11.1.9,22.2,1.9,33.5,8.5,1,17.1,1.7,25.7,2.1-.2-6.3-.4-12.6-.5-18.9-3.4-.1-6.7-.3-10-.4Zm-5.9,8.2v-.08.08q.1-.1.1,0h-.1Z"></path>
  <path class="cls-1" d="m471.8,835.7h.1q0-.1-.1,0Z"></path>
  <path class="cls-1" d="m502.8,626.1c-16.1-.1-29.3,22.9-38.4,66.3,0,.2-.1.3-.1.5l-2.5,10.8,40.9-21.3c10.4,4,30.8,15.7,31.1,15.8l9.6,5.5-2.2-10.8c-6.3-30.5-18.1-66.8-38.4-66.8Z"></path>
  <path class="cls-1" d="m575.5,624.8c12.8,5.3,44.7,17.5,64.8,17.5h.7l.7-.2c15.3-4.4,29.1-35.8,30.1-43,.6-4.3,1.7-33.4-4.7-41l-.2-.3-.3-.2c-6.9-6.2-16.2-8.6-26.3-8.6-14.8,0-31.5,5-45.3,10.6-25.2,10.1-50.6,25.8-60.7,35.2l-1.6,1.4v2.2c0,3.4,2.3,6.5,14.3,13.1,7.6,4.2,17.7,8.9,28.5,13.3Z"></path>
  <g>
    <path class="cls-1" d="m390.2,395.2v-68.5c-5.9,23.5-11.9,47.1-17.7,70.6,5.9-.7,11.8-1.5,17.7-2.1Z"></path>
    <path class="cls-1" d="m498,305.4h-.1c-3,0-4.9,1.2-5.9,3.5s-1.5,7.6-1.5,15.9h-.1v78.6c0,9.4.5,15,1.4,16.9.9,1.9,2.8,2.8,5.8,2.8h.1c3,0,5-1.2,5.9-3.4.9-2.2,1.4-7.3,1.4-15.2v-79.8c0-8.6-.4-13.9-1.2-16.1-.8-2.1-2.8-3.2-5.8-3.2Z"></path>
    <path class="cls-1" d="m797.6,545.91c-.21-5.39-.57-10.78-1.08-16.16-2.03-21.51-6.4-42.82-13.1-63.63-.11-.36-.25-.71-.4-1.06-.05-.12-.11-.23-.17-.34-.11-.23-.22-.45-.34-.68-.08-.13-.16-.26-.24-.39-.12-.2-.24-.39-.37-.58-.09-.14-.2-.27-.3-.4-.13-.18-.26-.35-.41-.53-.11-.13-.23-.26-.35-.39-.15-.16-.29-.33-.45-.48-.12-.13-.26-.25-.39-.37-.16-.15-.32-.3-.48-.44-.14-.12-.28-.23-.42-.35-.17-.14-.34-.27-.52-.41-.15-.11-.3-.22-.45-.32-.18-.13-.36-.25-.55-.37-.16-.1-.32-.2-.48-.29-.19-.11-.38-.22-.57-.33-.17-.09-.33-.18-.5-.26-.2-.1-.4-.19-.6-.28-.17-.08-.34-.15-.52-.23-.21-.09-.41-.16-.62-.24-.17-.06-.35-.13-.53-.19-.21-.07-.43-.13-.65-.2-.18-.05-.35-.1-.53-.15-.22-.06-.44-.1-.67-.15-.18-.04-.35-.08-.53-.11-.23-.04-.46-.07-.69-.09-.17-.02-.35-.05-.52-.06-.24-.02-.48-.03-.71-.04-.17,0-.33-.02-.5-.02-.03,0-.05,0-.08,0-.36,0-.72.01-1.08.04-7.87.63-15.73,1.25-23.6,1.88-.31-1.86-.63-3.74-.95-5.65-.64-3.81-1.31-7.72-2-11.7s-1.41-8.04-2.17-12.17c-.76-4.13-1.55-8.32-2.39-12.57-1.26-6.37-2.63-12.86-4.13-19.43-.5-2.19-1.02-4.39-1.55-6.59-1.06-4.41-2.19-8.85-3.4-13.3-.6-2.23-1.22-4.46-1.86-6.69-1.28-4.46-2.64-8.94-4.08-13.4-1.58-4.89-3.27-9.77-5.08-14.63-.6-1.62-1.22-3.24-1.84-4.85-1.26-3.23-2.57-6.45-3.93-9.65-.68-1.6-1.38-3.2-2.09-4.79-.71-1.59-1.44-3.18-2.18-4.76,0,0,0,0,0,0-2.2-4.68-4.54-9.32-7.02-13.89-.83-1.52-1.67-3.04-2.53-4.55-.92-1.61-1.86-3.2-2.81-4.79-.84-1.39-1.68-2.78-2.55-4.16-1.24-1.97-2.5-3.91-3.8-5.85-.92-1.37-1.86-2.72-2.81-4.07-1.07-1.51-2.15-3.01-3.26-4.5-1.4-1.88-2.83-3.73-4.3-5.57s-2.97-3.65-4.5-5.44c-.77-.9-1.55-1.79-2.33-2.67-1.19-1.34-2.41-2.66-3.64-3.98-1.21-1.29-2.43-2.56-3.68-3.82-1.68-1.7-3.4-3.37-5.16-5.01s-3.56-3.26-5.39-4.85c-.92-.79-1.85-1.58-2.79-2.36-1.67-1.39-3.38-2.75-5.12-4.09-.46-.35-.92-.7-1.38-1.05-2.71-2.05-5.49-4.05-8.35-5.99-1.04-.7-2.1-1.4-3.16-2.08-3.19-2.06-6.48-4.04-9.87-5.95-2.26-1.27-4.56-2.5-6.91-3.7s-4.75-2.36-7.19-3.48c-3.66-1.68-7.43-3.28-11.31-4.79-2.58-1.01-5.22-1.97-7.9-2.89-16.1-5.54-33.96-9.57-53.83-11.79-3.31-.37-6.68-.69-10.1-.96-5.13-.4-10.39-.69-15.79-.85-3.59-.11-7.25-.16-10.96-.16h0c-25.36,0-47.97,2.59-68.14,7.31-1.26.29-2.51.6-3.75.91-4.97,1.25-9.79,2.62-14.46,4.12-5.84,1.88-11.45,3.95-16.85,6.2-3.24,1.35-6.4,2.77-9.48,4.24-2.06.98-4.08,2-6.06,3.04-8.95,4.68-17.22,9.89-24.88,15.56-1.7,1.26-3.37,2.54-5.02,3.85-.82.65-1.63,1.31-2.44,1.97-1.61,1.33-3.2,2.67-4.75,4.04-3.11,2.74-6.1,5.55-8.98,8.45-1.44,1.45-2.86,2.91-4.24,4.39-4.86,5.19-9.38,10.59-13.61,16.18-1.21,1.6-2.39,3.21-3.55,4.83-8.11,11.37-15.04,23.4-21.01,35.81-1.71,3.54-3.34,7.12-4.89,10.71-1.94,4.5-3.77,9.03-5.5,13.58-1.73,4.55-3.35,9.13-4.87,13.71-.31.92-.61,1.83-.9,2.75-.6,1.83-1.18,3.67-1.74,5.5-.28.92-.56,1.83-.84,2.75-.55,1.83-1.09,3.67-1.62,5.5-.32,1.11-.63,2.23-.94,3.34-.9,3.23-1.76,6.45-2.58,9.65-.29,1.14-.58,2.29-.87,3.43-.45,1.82-.89,3.63-1.32,5.43-.22.9-.43,1.8-.64,2.71-.38,1.64-.75,3.27-1.12,4.89-.24,1.06-.47,2.12-.7,3.17-.23,1.05-.45,2.09-.68,3.13-.35,1.62-.69,3.23-1.02,4.84-.7,3.38-1.36,6.72-2,10.04-.06.31-.12.61-.18.91-.44,2.28-.86,4.55-1.28,6.8-.18.98-.36,1.96-.54,2.93-.43,2.37-.85,4.72-1.26,7.04-.2,1.11-.39,2.22-.58,3.32-.97,5.56-1.89,10.96-2.77,16.17h0c-6.79-.54-13.57-1.08-20.36-1.62-.36-.03-.72-.04-1.08-.04-.03,0-.05,0-.08,0-.16,0-.33.01-.49.02-.24,0-.48.02-.72.04-.17.02-.34.04-.52.06-.23.03-.46.06-.69.1-.18.03-.35.07-.52.1-.22.05-.45.09-.67.15-.18.04-.35.1-.52.15-.22.06-.44.13-.65.2-.17.06-.35.12-.52.18-.21.08-.42.16-.63.25-.17.07-.34.14-.51.22-.21.09-.41.19-.61.29-.17.08-.33.17-.49.26-.2.11-.39.22-.58.33-.16.09-.31.19-.47.29-.19.12-.37.25-.56.37-.15.1-.3.21-.44.32-.18.13-.35.27-.53.41-.14.11-.28.23-.41.34-.17.15-.33.3-.49.45-.13.12-.26.24-.38.37-.16.16-.3.32-.45.49-.11.13-.23.25-.34.39-.14.17-.28.35-.41.53-.1.13-.2.26-.3.4-.13.19-.25.39-.37.58-.08.13-.17.26-.24.39-.13.22-.23.45-.34.68-.05.11-.12.22-.17.34-.15.35-.29.7-.4,1.06-6.69,20.8-11.07,42.12-13.1,63.63-.51,5.38-.87,10.76-1.08,16.16-.64,16.18.05,32.43,2.08,48.59.76,6.1,6.98,11.5,13.55,12.02,10.73.85,21.46,1.71,32.18,2.56v55.39c0,1.46,1.08,2.87,2.89,4.2,1.81,1.33,4.35,2.57,7.29,3.69,3.91,1.5,8.52,2.8,13,3.81,1.12.25,2.24.49,3.33.71.55.11,1.09.21,1.62.31,1.07.2,2.11.38,3.12.54,1,.16,1.97.3,2.88.41,2.28.29,4.24.44,5.68.44h0l.91-65.43.56-39.85.65-46.36c.24-1.52.73-2.97,1.42-4.33.39-.76.84-1.5,1.35-2.21.21-.28.42-.56.65-.83.36-.43.74-.85,1.15-1.26,1.22-1.22,2.63-2.31,4.21-3.24,1.05-.62,2.18-1.18,3.36-1.65,2.96-1.19,6.29-1.9,9.8-2h0s.02,0,.03,0c.27,0,.54-.03.81-.03,0,0,137.68-19.58,183.68-19.59h.02c.48,0,.99,0,1.49,0,.25,0,.48,0,.73,0,.55,0,1.12.02,1.69.03.23,0,.45,0,.68.01.48.01.97.03,1.46.04.35,0,.68.02,1.03.03.48.02.98.04,1.47.05.38.01.75.03,1.14.04.48.02.98.04,1.47.06.42.02.83.04,1.26.06.4.02.82.04,1.23.06.53.03,1.06.05,1.61.08.38.02.77.04,1.15.07.59.03,1.18.07,1.78.1.25.02.52.03.77.05.75.05,1.5.09,2.27.14.04,0,.08,0,.12,0,.99.06,1.99.13,3,.2.09,0,.19.01.28.02,41.39,2.91,104.9,11.05,138.13,15.5,1.07.14,2.11.28,3.12.42,2.25.3,4.34.59,6.23.85.64.09,1.25.17,1.85.25,6.82.93,10.8,1.5,10.8,1.5.69,0,1.37.02,2.05.07,1.35.09,2.67.28,3.94.55.64.13,1.26.29,1.88.46h0c2.28.64,4.4,1.56,6.28,2.7,1.4.84,2.67,1.8,3.79,2.87.33.31.64.64.94.97.6.66,1.14,1.36,1.61,2.08,1.19,1.81,1.99,3.82,2.31,5.94l.24,36.25.39,58.72.37,56.59h0c1.44,0,3.4-.15,5.68-.44.91-.12,1.88-.25,2.88-.41,1-.16,2.05-.34,3.12-.54.54-.1,1.08-.2,1.62-.31,1.09-.22,2.21-.45,3.33-.71,4.49-1.01,9.09-2.31,13-3.81,2.93-1.13,5.48-2.37,7.29-3.69,1.81-1.33,2.89-2.73,2.89-4.2v-55.12c11.82-.94,23.64-1.88,35.47-2.82,1.64-.13,3.26-.57,4.78-1.24.76-.34,1.49-.74,2.19-1.18.7-.45,1.36-.95,1.98-1.49.93-.82,1.75-1.73,2.44-2.72.69-.99,1.24-2.04,1.63-3.14.26-.73.44-1.48.53-2.25,2.03-16.16,2.71-32.41,2.08-48.59Zm-355.7-127.71c-3.9.3-7.7.5-11.5.8v28.3c-13.4,1-26.8,2.2-40.2,3.7v-28.3c-15.9,1.8-31.8,3.9-47.6,6.4v-27.5c11.5-36.9,23.1-73.6,34.6-110.1,4.67-.58,9.33-1.12,14-1.63,2.33-.26,4.67-.49,7-.73,10.71-1.1,21.44-2.05,32.2-2.84v105.2c3.9-.3,7.7-.6,11.5-.8v27.5Zm78,26.7c-6,2-12.6,3-19.9,3h-.4c-9.4,0-17.3-1-23.6-3-6.4-2.1-11.5-5.4-15.3-9.9-3.8-4.5-6.5-9.4-8.1-14.5-1.6-5.1-2.4-13.4-2.4-24.7v-56.2c0-14.8,1.2-25.9,3.8-33.4,2.6-7.5,7.7-13.6,15.3-18.3,7.6-4.7,16.9-7.1,27.7-7.2h.4c8.6,0,16.4,1.6,23.3,4.8,7,3.2,12.2,7.1,15.7,11.7,3.5,4.5,6,9.7,7.2,15.3,1.2,5.6,1.8,14.5,1.8,26.7v53.7c0,12.2-.7,21.1-2,26.6-1.3,5.5-4.1,10.6-8.3,15.3-4.2,4.7-9.3,8.1-15.2,10.1Zm99.8,6.6c-5.6-23.6-11.2-47.2-16.9-70.8v69c-13.9-1.3-27.9-2.4-41.9-3.2v-161.1c14,.8,28,1.9,41.9,3.3v62.6c6.2-20.3,12.4-40.5,18.6-60.6,13,1.5,26.1,3.3,39.1,5.3-7.9,23-15.9,46.1-23.9,69.3,8.7,30.6,17.5,61.3,26.2,92.1-14.3-2.3-28.7-4.2-43.1-5.9Z"></path>
    <path class="cls-1" d="m373.7,407.3c-.4,0-.8.1-1.2.1.4,0,.8,0,1.2-.1Z"></path>
    <polygon class="cls-1" points="372.5 403.39 372.42 403.4 372.5 403.4 372.5 403.39"></polygon>
  </g>
</svg>
